Exact Audio Copy V0.99 prebeta 4 from 23. January 2008

Отчёт EAC об извлечении, выполненном 2. февраля 2010, 20:34

Avril Lavigne / The Best Damn Thing (Limited Edition)

Дисковод: Optiarc DVD RW AD-7200S   Adapter: 3  ID: 0

Режим чтения                 : Достоверность
Использование точного потока : Да
Отключение кэша аудио        : Да
Использование указателей C2  : Нет

Коррекция смещения при чтении                     : 48
Способность читать области Lead-in и Lead-out     : Нет
Заполнение пропущенных сэмплов тишиной            : Да
Удаление блоков с тишиной в начале и конце        : Нет
При вычислениях CRC использовались нулевые сэмплы : Да
Интерфейс                                         : Встроенный Win32-интерфейс для Win NT/2000
Обработка зазоров                                 : Добавлено к предыдущему треку

Выходной формат          : Пользовательский кодировщик
Выбранный битрейт        : 1024 kBit/s
Качество                 : Высокий
Добавление ID3-тэга      : Нет
Утилита сжатия           : C:\Program Files\FLAC\flac.exe
Дополнительные параметры : -8 -V -T "ARTIST=%a" -T "TITLE=%t" -T "ALBUM=%g" -T "DATE=%y" -T "TRACKNUMBER=%n" -T "GENRE=%m" -T "COMMENT=EAC Test & Copy" %s


TOC извлечённого CD

     Трек |   Старт  | Длительность | Начальный сектор | Конечный сектор 
    ---------------------------------------------------------------------
       1  |  0:00.00 |    3:37.07   |           0      |      16281      
       2  |  3:37.07 |    3:17.05   |       16282      |      31061      
       3  |  6:54.12 |    3:48.43   |       31062      |      48204      
       4  | 10:42.55 |    3:10.30   |       48205      |      62484      
       5  | 13:53.10 |    4:00.37   |       62485      |      80521      
       6  | 17:53.47 |    3:03.05   |       80522      |      94251      
       7  | 20:56.52 |    3:23.40   |       94252      |     109516      
       8  | 24:20.17 |    3:53.00   |      109517      |     126991      
       9  | 28:13.17 |    3:17.53   |      126992      |     141819      
      10  | 31:30.70 |    2:56.20   |      141820      |     155039      
      11  | 34:27.15 |    2:10.42   |      155040      |     164831      
      12  | 36:37.57 |    4:01.03   |      164832      |     182909      
      13  | 40:38.60 |    3:14.67   |      182910      |     197526      
      14  | 43:53.52 |    4:00.35   |      197527      |     215561      
      15  | 47:54.12 |    3:39.42   |      215562      |     232028      
      16  | 51:33.54 |    3:38.62   |      232029      |     248440      
      17  | 55:12.41 |    3:24.65   |      248441      |     263805      


Трек  1

     Имя файла E:\01._Girlfriend.wav

     Длина предзазора  0:00:02.00

     Пиковый уровень 98.8 %
     Качество трека 100.0 %
     CRC теста 27AE6676
     CRC копии 27AE6676
     Трек не обнаружен в базе AccurateRip
     Копирование... OK

Трек  2

     Имя файла E:\02._I_Can_Do_Better.wav

     Длина предзазора  0:00:00.37

     Пиковый уровень 99.8 %
     Качество трека 100.0 %
     CRC теста E4570BAF
     CRC копии E4570BAF
     Трек не обнаружен в базе AccurateRip
     Копирование... OK

Трек  3

     Имя файла E:\03._Runaway.wav

     Длина предзазора  0:00:01.57

     Пиковый уровень 100.0 %
     Качество трека 100.0 %
     CRC теста 997F83BF
     CRC копии 997F83BF
     Трек не обнаружен в базе AccurateRip
     Копирование... OK

Трек  4

     Имя файла E:\04._The_Best_Damn_Thing.wav

     Длина предзазора  0:00:00.48

     Пиковый уровень 99.8 %
     Качество трека 100.0 %
     CRC теста 9C5870B9
     CRC копии 9C5870B9
     Трек не обнаружен в базе AccurateRip
     Копирование... OK

Трек  5

     Имя файла E:\05._When_You're_Gone.wav

     Длина предзазора  0:00:01.15

     Пиковый уровень 99.8 %
     Качество трека 100.0 %
     CRC теста CD3E5EED
     CRC копии CD3E5EED
     Трек не обнаружен в базе AccurateRip
     Копирование... OK

Трек  6

     Имя файла E:\06._Everything_Back_But_You.wav

     Пиковый уровень 99.8 %
     Качество трека 100.0 %
     CRC теста B6A017B8
     CRC копии B6A017B8
     Трек не обнаружен в базе AccurateRip
     Копирование... OK

Трек  7

     Имя файла E:\07._Hot.wav

     Длина предзазора  0:00:00.72

     Пиковый уровень 98.8 %
     Качество трека 99.8 %
     CRC теста 34C8AD95
     CRC копии 34C8AD95
     Трек не обнаружен в базе AccurateRip
     Копирование... OK

Трек  8

     Имя файла E:\08._Innocence.wav

     Длина предзазора  0:00:00.42

     Пиковый уровень 98.4 %
     Качество трека 99.8 %
     CRC теста 5751760E
     CRC копии 5751760E
     Трек не обнаружен в базе AccurateRip
     Копирование... OK

Трек  9

     Имя файла E:\09._I_Don't_Have_To_Try.wav

     Длина предзазора  0:00:00.60

     Пиковый уровень 99.8 %
     Качество трека 99.8 %
     CRC теста BE493351
     CRC копии BE493351
     Трек не обнаружен в базе AccurateRip
     Копирование... OK

Трек 10

     Имя файла E:\10._One_Of_Those_Girls.wav

     Длина предзазора  0:00:00.33

     Пиковый уровень 97.7 %
     Качество трека 99.8 %
     CRC теста 0FECE50E
     CRC копии 0FECE50E
     Трек не обнаружен в базе AccurateRip
     Копирование... OK

Трек 11

     Имя файла E:\11._Contagious.wav

     Длина предзазора  0:00:00.58

     Пиковый уровень 98.8 %
     Качество трека 100.0 %
     CRC теста 45E5EC1C
     CRC копии 45E5EC1C
     Трек не обнаружен в базе AccurateRip
     Копирование... OK

Трек 12

     Имя файла E:\12._Keep_Holding_On.wav

     Длина предзазора  0:00:01.37

     Пиковый уровень 98.4 %
     Качество трека 100.0 %
     CRC теста ED6A8726
     CRC копии ED6A8726
     Трек не обнаружен в базе AccurateRip
     Копирование... OK

Трек 13

     Имя файла E:\13._Alone.wav

     Длина предзазора  0:00:01.10

     Пиковый уровень 87.9 %
     Качество трека 100.0 %
     CRC теста C830E6D0
     CRC копии C830E6D0
     Трек не обнаружен в базе AccurateRip
     Копирование... OK

Трек 14

     Имя файла E:\14._I_Will_Be.wav

     Длина предзазора  0:00:01.13

     Пиковый уровень 99.8 %
     Качество трека 100.0 %
     CRC теста 311153B9
     CRC копии 311153B9
     Трек не обнаружен в базе AccurateRip
     Копирование... OK

Трек 15

     Имя файла E:\15._I_Can_Do_Better_(acoustic).wav

     Длина предзазора  0:00:00.58

     Пиковый уровень 98.8 %
     Качество трека 100.0 %
     CRC теста 6FEF1764
     CRC копии 6FEF1764
     Трек не обнаружен в базе AccurateRip
     Копирование... OK

Трек 16

     Имя файла E:\16._Girlfriend_(Japanese_Version).wav

     Длина предзазора  0:00:00.31

     Пиковый уровень 98.1 %
     Качество трека 99.9 %
     CRC теста 4B8D73FD
     CRC копии 4B8D73FD
     Трек не обнаружен в базе AccurateRip
     Копирование... OK

Трек 17

     Имя файла E:\17._Girlfriend_(Dr._Luke_Remix_feat._Lil_Mama).wav

     Длина предзазора  0:00:00.43

     Пиковый уровень 99.9 %
     Качество трека 99.9 %
     CRC теста 66D78F29
     CRC копии 66D78F29
     Трек не обнаружен в базе AccurateRip
     Копирование... OK


Ни одного трека нет в базе AccurateRip

Ошибок не произошло

Конец отчёта
